<svg xmlns="http://www.w3.org/2000/svg" viewBox="0 0 225.05 224.85"><defs><style>.cls-1{fill:#1782c5;}.cls-2{fill:#1e262d;}.cls-3{fill:#f4f8fc;}.cls-4{fill:#f4f9fc;}.cls-5{fill:#f3f8fc;}</style></defs><title>Niru SingAsset 21</title><g id="Layer_2" data-name="Layer 2"><g id="Layer_1-2" data-name="Layer 1"><path class="cls-1" d="M125.05,224.85h-26c-1.63-1.77-4-1.4-6-1.75C33.37,212.82-7.78,155.88,1.24,95.89A112.37,112.37,0,0,1,124,.6c48.72,5,87.72,39.86,98.51,87.86.85,3.79.62,7.85,2.58,11.39v26c-1.86,1.79-1.44,4.29-1.81,6.46-7.35,43.44-42.34,80.18-85.33,89.68C133.62,222.94,129.08,222.74,125.05,224.85ZM97.1,59.85h-.2c0-4.66,0-9.33,0-14-.06-7.48-1.74-9.27-9.2-10A37,37,0,0,0,50.19,60a63.66,63.66,0,0,0-2.84,29.56c3.79,29.11,16.15,54.67,33.89,77.66,10.65,13.81,24,24,42.05,26.22,12.58,1.55,24.18-1.22,34.36-8.86,5.61-4.22,6-8.39,1.58-13.47-6.35-7.28-12.88-14.4-19.32-21.6-2.65-3-5.68-3.79-9.39-2-3.31,1.55-6.8,2.73-10,4.46-6.63,3.59-12.18,1.83-17.15-3.09a50.53,50.53,0,0,1-6-6.71,156.88,156.88,0,0,1-19-37.72,37.36,37.36,0,0,1-1.48-7.3c-.58-4.19,1-7,5.22-8.38a79.66,79.66,0,0,0,9.6-4.15c3.8-1.83,5.66-4.75,5.41-9.2C96.88,70.19,97.1,65,97.1,59.85ZM184,104a64,64,0,0,0-2-16.13c-6.63-26.42-31.51-46.24-57.69-46-2.65,0-5.4.07-5.62,3.39-.24,3.66,2.64,4.07,5.47,4.22a51.41,51.41,0,0,1,7.46.6c20.48,4.23,35.14,15.76,41.78,35.76s2.39,38.35-11.87,54.12c-2,2.21-4.28,4.49-1.27,7.12,2.68,2.35,4.86.16,6.75-1.87A61.72,61.72,0,0,0,184,104Zm-19.92-2.35c.17-1.43-.57-4.2-1.08-7-3.29-18.15-20.93-33-38.88-32.84-2.53,0-4.89.26-5.18,3.33-.32,3.39,2.14,4.06,4.85,4.33a50,50,0,0,1,6.92.87c24.72,6.09,33.82,35.58,17,55.08-1.89,2.19-4.41,4.38-1.35,7.13s5.11-.21,7-2.22C160.38,122.69,163.61,113.45,164.08,101.67Zm-20.16,2.77c.43-12-8.92-22.28-19.64-22.57-2.52-.07-4.85.3-5.2,3.31s1.82,4.16,4.35,4.24c11.79.36,16.89,15.07,9.26,22.88-1.76,1.8-2.08,3.9,0,5.64,2.32,1.94,4.27.78,6-1.17A21.61,21.61,0,0,0,143.92,104.44Z"/><path class="cls-2" d="M97.1,59.85c0,5.17-.22,10.34.06,15.49.25,4.45-1.61,7.37-5.41,9.2a79.66,79.66,0,0,1-9.6,4.15c-4.23,1.4-5.8,4.19-5.22,8.38a37.36,37.36,0,0,0,1.48,7.3,156.88,156.88,0,0,0,19,37.72,50.53,50.53,0,0,0,6,6.71c5,4.92,10.52,6.68,17.15,3.09,3.21-1.73,6.7-2.91,10-4.46,3.71-1.74,6.74-.92,9.39,2,6.44,7.2,13,14.32,19.32,21.6,4.44,5.08,4,9.25-1.58,13.47-10.18,7.64-21.78,10.41-34.36,8.86-18.05-2.21-31.4-12.41-42.05-26.22-17.74-23-30.1-48.55-33.89-77.66A63.66,63.66,0,0,1,50.19,60a37,37,0,0,1,37.5-24.06c7.46.68,9.14,2.47,9.2,10,0,4.66,0,9.33,0,14Z"/><path class="cls-3" d="M184,104a61.72,61.72,0,0,1-17,41.16c-1.89,2-4.07,4.22-6.75,1.87-3-2.63-.73-4.91,1.27-7.12,14.26-15.77,18.53-34,11.87-54.12s-21.3-31.53-41.78-35.76a51.41,51.41,0,0,0-7.46-.6c-2.83-.15-5.71-.56-5.47-4.22.22-3.32,3-3.37,5.62-3.39,26.18-.19,51.06,19.63,57.69,46.05A64,64,0,0,1,184,104Z"/><path class="cls-4" d="M164.08,101.67c-.47,11.78-3.7,21-10.78,28.71-1.84,2-3.79,5.08-7,2.22s-.54-4.94,1.35-7.13c16.83-19.5,7.73-49-17-55.08a50,50,0,0,0-6.92-.87c-2.71-.27-5.17-.94-4.85-4.33.29-3.07,2.65-3.31,5.18-3.33,17.95-.15,35.59,14.69,38.88,32.84C163.51,97.47,164.25,100.24,164.08,101.67Z"/><path class="cls-5" d="M143.92,104.44a21.61,21.61,0,0,1-5.23,12.33c-1.72,2-3.67,3.11-6,1.17-2.09-1.74-1.77-3.84,0-5.64,7.63-7.81,2.53-22.52-9.26-22.88-2.53-.08-4.71-1.17-4.35-4.24s2.68-3.38,5.2-3.31C135,82.16,144.35,92.49,143.92,104.44Z"/></g></g></svg>