<svg xmlns="http://www.w3.org/2000/svg" width="29" height="24" viewBox="0 0 29 24">
    <path fill="#777" fill-rule="nonzero" d="M27.724 3.807s2.07 3.853-.458 6.706a2.237 2.237 0 0 1-.636.497 1.753 1.753 0 0 1-.184.08c-.757.291-2.026.335-3.423.052-1.233-.25-2.272-.695-2.904-1.182l-.009.003-.016-.022c-.339-.266-.548-.542-.597-.808l-.024-.033s-.495-3.2-1.05-3.332a38.887 38.887 0 0 0-8.36.12c-.553.14-.956 3.363-.956 3.363l-.023.033c-.04.267-.243.55-.574.826l-.015.021-.01-.002c-.617.505-1.643.98-2.867 1.266-1.389.323-2.659.316-3.424.048a1.728 1.728 0 0 1-.365-.173 2.233 2.233 0 0 1-.471-.38C-1.252 8.112.704 4.2.704 4.2h.007C1.478 1.938 7.186.107 14.15.005c6.966-.101 12.726 1.564 13.557 3.805l.016-.002zm-4.95 8.565c.53.107 1.05.174 1.554.202 1.022 3.897 2.068 6.066 1.737 7.995-.585 3.404-11.048 3.434-11.86 3.43-.81.004-11.273-.026-11.858-3.43-.323-1.877.66-3.852 1.656-7.685a10.587 10.587 0 0 0 1.899-.266c1.103-.257 2.094-.655 2.858-1.143l.69-.52c.39-.354.655-.736.79-1.138l.073-.106.038-.303c.11-.878.297-1.824.452-2.34a37.71 37.71 0 0 1 6.911-.1c.17.51.384 1.45.52 2.325l.07.333.051.07c.148.4.424.774.826 1.119l.732.515c.773.457 1.764.82 2.861 1.042zm-10.357 6.615v-.621a.557.557 0 0 0-.558-.557h-1.486a.557.557 0 0 0-.557.557v.62c0 .309.25.558.557.558h1.486c.308 0 .558-.25.558-.557zm0-2.49v-.621a.557.557 0 0 0-.558-.557h-1.486a.557.557 0 0 0-.557.557v.621c0 .308.25.557.557.557h1.486c.308 0 .558-.25.558-.557zm0-2.49v-.62a.557.557 0 0 0-.558-.558h-1.486a.557.557 0 0 0-.557.557v.621c0 .308.25.557.557.557h1.486c.308 0 .558-.25.558-.557zm3.32 4.98v-.621a.557.557 0 0 0-.558-.557h-1.486a.557.557 0 0 0-.557.557v.62c0 .309.25.558.557.558h1.486c.308 0 .558-.25.558-.557zm0-2.49v-.621a.557.557 0 0 0-.558-.557h-1.486a.557.557 0 0 0-.557.557v.621c0 .308.25.557.557.557h1.486c.308 0 .558-.25.558-.557zm0-2.49v-.62a.557.557 0 0 0-.558-.558h-1.486a.557.557 0 0 0-.557.557v.621c0 .308.25.557.557.557h1.486c.308 0 .558-.25.558-.557zm3.32 4.98v-.621a.557.557 0 0 0-.558-.557h-1.486a.557.557 0 0 0-.557.557v.62c0 .309.25.558.557.558H18.5c.308 0 .557-.25.557-.557zm0-2.49v-.621a.557.557 0 0 0-.558-.557h-1.486a.557.557 0 0 0-.557.557v.621c0 .308.25.557.557.557H18.5c.308 0 .557-.25.557-.557zm0-2.49v-.62a.557.557 0 0 0-.558-.558h-1.486a.557.557 0 0 0-.557.557v.621c0 .308.25.557.557.557H18.5c.308 0 .557-.25.557-.557z"/>
</svg>
